<svg xmlns="http://www.w3.org/2000/svg" viewBox="0 0 31 32" fill="#6f1131">
  <path d="M25.3 29.37c-6.4 4.9-14.86 1.3-14.86 1.3-.03-.03-4.1-6.08-3.7-11.9.5-7.45 5.9-11.33 6-15.03.08-2.64-.3-3.67-.3-3.67s8.88 3.47 8.57 13.1c-.07 2.7-.75 5.12-1.72 7.24 2.84-.64 5.72-.94 7.77-2.63 2.04-1.68 2.5-2.7 2.5-2.7s3.4 8.42-4.24 14.3zm-5.2-9.66c.16-.35.73-1.78 1-3.2.38-1.9.4-3.6.4-4 .6-.4 1.12-.87 1.57-1.43 1.46-1.83 1.67-2.8 1.67-2.8s3.04 4.53 1.02 9.76c-1.64.9-3.63 1.25-5.65 1.68zM7.8 27.36c-1.78-.67-4.13-1.95-5.3-4.28-2.06-4.16-.55-8.04-.76-10.26C1.5 10.3-.32 8.47-.32 8.47S5.52 6.98 7.52 13c-.76 1.66-1.34 3.56-1.47 5.78-.2 3.54.76 6.5 1.76 8.57z"/>
</svg>