<?xml version="1.0" encoding="utf-8"?>
<svg xmlns="http://www.w3.org/2000/svg"
	xmlns:xlink="http://www.w3.org/1999/xlink"
	width="31px" height="32px" viewBox="0 0 31 32">
<path fillRule="evenodd" d="M 25.31 29.37C 18.91 34.28 10.44 30.67 10.44 30.67 10.41 30.64 6.34 24.59 6.73 18.78 7.23 11.32 12.63 7.44 12.74 3.74 12.82 1.1 12.45 0.07 12.45 0.07 12.45 0.07 21.32 3.54 21.01 13.17 20.93 15.86 20.25 18.29 19.28 20.41 22.12 19.76 25 19.46 27.05 17.77 29.09 16.09 29.55 15.06 29.55 15.06 29.55 15.06 32.95 23.49 25.31 29.37ZM 20.11 19.71C 20.26 19.35 20.83 17.92 21.11 16.49 21.48 14.59 21.5 12.9 21.49 12.49 22.09 12.09 22.62 11.63 23.07 11.07 24.53 9.24 24.74 8.26 24.74 8.26 24.74 8.26 27.78 12.8 25.76 18.03 24.12 18.94 22.13 19.28 20.11 19.71ZM 7.81 27.35C 6.02 26.68 3.67 25.4 2.51 23.07 0.44 18.91 1.95 15.03 1.74 12.81 1.51 10.3-0.32 8.46-0.32 8.46-0.32 8.46 5.52 6.98 7.52 12.99 6.76 14.66 6.18 16.56 6.05 18.78 5.86 22.32 6.81 25.28 7.81 27.35Z" fill="#9b476a"/></svg>