<svg xmlns="http://www.w3.org/2000/svg" width="439" height="826" viewBox="0 0 439 826">
  <defs>
    <style>
      .cls-1 {
        fill: white;
        fill-rule: evenodd;
      }
    </style>
  </defs>
  <path id="cage" class="cls-1" d="M219.5,683.667c-105.642,0-218.75-30.974-218.75-77.084V239.917A218.274,218.274,0,0,1,174.226,26.43a52.092,52.092,0,0,1,90.249-.061A218.2,218.2,0,0,1,438.25,239.917V606.583C438.25,652.693,325.14,683.667,219.5,683.667ZM21.583,606.583c0,10.446,22.553,26.044,62.37,38.167V423.25A10.49,10.49,0,0,1,84.035,422a228.671,228.671,0,0,1-62.452-58.568V606.583ZM219.5,376.375c-70.007,0-127.777-53.81-134.718-122.541a201.944,201.944,0,0,0-62,71.76C58.3,395.365,134.911,440.177,219.459,440.177c84.6,0,161.247-44.812,196.761-114.583a201.847,201.847,0,0,0-62-71.753C347.273,322.569,289.506,376.375,219.5,376.375ZM334.071,240.917a234.447,234.447,0,0,0-229.142-.011c0.53,63.3,51.717,114.636,114.571,114.636S333.535,304.213,334.071,240.917Zm-312.488-1v47.837a228.647,228.647,0,0,1,62.392-58.53c0.47-71.545,22.846-133.467,57.458-170.735A197.414,197.414,0,0,0,21.583,239.917Zm83.546-22.748a250.576,250.576,0,0,1,62.316-21.694c0.312-39.819,3.514-107.916,20.38-146.145C142.608,70.8,108.773,137.131,105.129,217.169ZM219.435,42c-9.531.17-29.937,38.311-31.129,150.06a258.316,258.316,0,0,1,62.258-.009C249.371,80.313,228.965,42.174,219.435,42Zm31.6,7.323c16.867,38.221,20.072,106.308,20.385,146.132a250.749,250.749,0,0,1,62.314,21.655C330.082,137.1,296.248,70.789,251.04,49.327Zm166.377,190.59A197.353,197.353,0,0,0,297.348,58.394c34.65,37.244,57.06,99.181,57.546,170.755a228.629,228.629,0,0,1,62.523,58.6V239.917Zm0,123.519a228.621,228.621,0,0,1-62.5,58.588V528.446a10.417,10.417,0,1,1-20.834,0V433.9a250.659,250.659,0,0,1-62.613,21.818l0.024,151.548a10.417,10.417,0,0,1-20.834.008l-0.022-148.152a258.294,258.294,0,0,1-62.387-.007v13.625l0,27.238a10.415,10.415,0,0,1-10.417,10.413h0a10.417,10.417,0,0,1-10.412-10.421l0-27.226,0-17.039a250.521,250.521,0,0,1-62.63-21.859V650.366c31.082,7.382,69.882,12.467,114.713,12.467,120.842,0,197.917-36.934,197.917-56.25V363.436ZM344.541,579.5a10.417,10.417,0,0,1-.041-20.833h0.041A10.417,10.417,0,0,1,344.541,579.5ZM55.743,749.979l5.544,16.368,5.456-15.664,18.745-51.394h23.057L73.432,788.7H48.7L13.238,699.289H37.175Zm80.432-12.849,31.241-37.841h26.841L158,740.034,197.249,788.7H169.176l-33-44.705V788.7H114.7V699.289h21.472V737.13Zm71.818,24.157a17.2,17.2,0,0,1,5.368-3.7,16.118,16.118,0,0,1,6.6-1.364,17.177,17.177,0,0,1,6.864,1.364,17.478,17.478,0,0,1,5.5,3.7,16.885,16.885,0,0,1,3.652,5.5,17.445,17.445,0,0,1,1.32,6.777,17.049,17.049,0,0,1-4.972,12.1,17.445,17.445,0,0,1-5.5,3.7,17.177,17.177,0,0,1-6.864,1.364,16.118,16.118,0,0,1-6.6-1.364,17.128,17.128,0,0,1-8.976-9.152,16.89,16.89,0,0,1-1.32-6.644,17.445,17.445,0,0,1,1.32-6.777A17.21,17.21,0,0,1,207.993,761.287Zm39.16,30.361a27.439,27.439,0,0,1,3.96-4.708,47.418,47.418,0,0,1,5.633-4.576,17.245,17.245,0,0,1-6.557-6.336,16.228,16.228,0,0,1-2.244-8.273,19.069,19.069,0,0,1,.792-5.588,27.348,27.348,0,0,1,2.068-4.972,34.477,34.477,0,0,1,2.949-4.576q1.669-2.2,3.52-4.312a25.709,25.709,0,0,1-7.569-19.449,31.636,31.636,0,0,1,2.684-13.332,27.94,27.94,0,0,1,7.437-9.857,32.493,32.493,0,0,1,11.308-6.072,47.341,47.341,0,0,1,14.3-2.068,70.631,70.631,0,0,1,7.612.4,33.263,33.263,0,0,1,6.644,1.364h22.977v15.665h-6.08a19.132,19.132,0,0,1,3.476,6.468,24.04,24.04,0,0,1,1.012,6.908,31.656,31.656,0,0,1-2.6,13.2,26.311,26.311,0,0,1-7.305,9.592,32.117,32.117,0,0,1-11.264,5.852,49.927,49.927,0,0,1-14.476,1.98,37.928,37.928,0,0,1-8.625-.924,21.091,21.091,0,0,1-5.984-2.156,16.3,16.3,0,0,0-2.552,3.3,7.95,7.95,0,0,0-1.056,4.092,6.233,6.233,0,0,0,.7,2.816,7.536,7.536,0,0,0,2.068,2.508,11.5,11.5,0,0,0,3.256,1.8,13.6,13.6,0,0,0,4.268.792l21.209,0.792a52.244,52.244,0,0,1,12.893,1.8,31.251,31.251,0,0,1,9.9,4.62,20.922,20.922,0,0,1,6.38,7.26,20.58,20.58,0,0,1,2.244,9.724,25.692,25.692,0,0,1-2.816,11.793,26.928,26.928,0,0,1-8.492,9.636,44.651,44.651,0,0,1-14.125,6.468,72.788,72.788,0,0,1-19.624,2.376,87.626,87.626,0,0,1-18.613-1.716,41,41,0,0,1-12.76-4.8,20.469,20.469,0,0,1-7.349-7.348,18.949,18.949,0,0,1-2.376-9.372,19.828,19.828,0,0,1,.792-5.721A19.373,19.373,0,0,1,247.153,791.648Zm26.621-51.482q4.179,4.182,11.661,4.181a16.78,16.78,0,0,0,6.908-1.32,14.026,14.026,0,0,0,4.884-3.521,14.648,14.648,0,0,0,2.9-5.1,19.083,19.083,0,0,0,.968-6.072q0-7.479-4.18-11.66t-11.66-4.18a16.781,16.781,0,0,0-6.909,1.32,13.759,13.759,0,0,0-4.884,3.564,14.965,14.965,0,0,0-2.9,5.236,20.155,20.155,0,0,0-.968,6.248Q269.594,735.986,273.774,740.166Zm-2.552,68.071q5.235,2.463,14.741,2.464a39.423,39.423,0,0,0,10.252-1.144,22,22,0,0,0,6.82-2.992,10.934,10.934,0,0,0,3.784-4.312,12.005,12.005,0,0,0,1.144-5.105,6.99,6.99,0,0,0-1.1-4,8.755,8.755,0,0,0-3.08-2.728,16.733,16.733,0,0,0-4.664-1.672,38.725,38.725,0,0,0-5.94-.748l-18.921-.352a32.34,32.34,0,0,0-4.18,3.344,15.7,15.7,0,0,0-2.552,3.124,9.623,9.623,0,0,0-1.232,3.124,17.449,17.449,0,0,0-.308,3.345Q265.986,805.773,271.222,808.237Zm83.812-108.948,18.569,50.69,5.544,16.368,5.456-15.664,18.745-51.394h23.057l-31.329,79.643a160.446,160.446,0,0,1-9.725,20.373,65.977,65.977,0,0,1-11.132,14.608,41.3,41.3,0,0,1-13.509,8.8,44.923,44.923,0,0,1-16.676,2.948q-2.2,0-4.8-.22t-5.324-.66V806.565c0.7,0.117,1.509.249,2.42,0.4s1.861,0.264,2.86.352,2.009,0.161,3.036.22,1.98,0.088,2.86.088a16.719,16.719,0,0,0,6.864-1.408,21.109,21.109,0,0,0,5.852-3.916,30.4,30.4,0,0,0,4.885-5.985,47.653,47.653,0,0,0,3.872-7.612L331.1,699.289h23.937Z"/>
</svg>
