<svg xmlns="http://www.w3.org/2000/svg" width="413" height="128" viewBox="0 0 413 128">
  <defs>
    <style>
      .cls-1 {
        fill: white;
        fill-rule: evenodd;
      }
    </style>
  </defs>
  <path class="cls-1" d="M381.684,81.274a159.921,159.921,0,0,1-9.721,20.33,65.882,65.882,0,0,1-11.127,14.577,41.3,41.3,0,0,1-13.5,8.781,44.969,44.969,0,0,1-16.669,2.942q-2.2,0-4.8-.22t-5.322-.658V108.848c0.7,0.117,1.508.249,2.419,0.4s1.86,0.264,2.859.352,2.008,0.16,3.034.219,1.98,0.088,2.859.088a16.729,16.729,0,0,0,6.861-1.405,21.093,21.093,0,0,0,5.85-3.908,30.289,30.289,0,0,0,4.883-5.972,47.557,47.557,0,0,0,3.871-7.6L317.734,1.8h23.924L360.22,52.382l5.542,16.333,5.453-15.631L389.953,1.8H413Zm-76.222,37.8a44.676,44.676,0,0,1-14.12,6.455,72.869,72.869,0,0,1-19.616,2.371,87.7,87.7,0,0,1-18.6-1.713,41,41,0,0,1-12.755-4.79,20.438,20.438,0,0,1-7.346-7.332,18.884,18.884,0,0,1-2.375-9.352A19.73,19.73,0,0,1,231.437,99a19.272,19.272,0,0,1,2.384-5.039,27.385,27.385,0,0,1,3.958-4.7A47.361,47.361,0,0,1,243.41,84.7a17.223,17.223,0,0,1-6.555-6.323,16.176,16.176,0,0,1-2.243-8.255,19.035,19.035,0,0,1,.792-5.576,27.265,27.265,0,0,1,2.067-4.961,34.413,34.413,0,0,1,2.948-4.566q1.668-2.2,3.519-4.3a25.627,25.627,0,0,1-7.566-19.408A31.509,31.509,0,0,1,239.055,18a27.88,27.88,0,0,1,7.434-9.836,32.489,32.489,0,0,1,11.3-6.059A47.4,47.4,0,0,1,272.086.044a70.7,70.7,0,0,1,7.609.4A33.278,33.278,0,0,1,286.336,1.8H309.3V17.436h-6.077A19.077,19.077,0,0,1,306.7,23.89a23.917,23.917,0,0,1,1.012,6.893,31.539,31.539,0,0,1-2.6,13.172,26.263,26.263,0,0,1-7.3,9.572,32.129,32.129,0,0,1-11.26,5.84,49.983,49.983,0,0,1-14.47,1.976,37.974,37.974,0,0,1-8.621-.922,21.111,21.111,0,0,1-5.982-2.151,16.29,16.29,0,0,0-2.551,3.293,7.923,7.923,0,0,0-1.055,4.083,6.209,6.209,0,0,0,.7,2.81,7.532,7.532,0,0,0,2.067,2.5,11.52,11.52,0,0,0,3.255,1.8,13.619,13.619,0,0,0,4.266.79l21.2,0.79a52.308,52.308,0,0,1,12.888,1.8,31.264,31.264,0,0,1,9.9,4.61,20.886,20.886,0,0,1,6.377,7.245,20.506,20.506,0,0,1,2.243,9.7,25.587,25.587,0,0,1-2.815,11.768A26.872,26.872,0,0,1,305.462,119.072ZM260.431,42.59q4.178,4.173,11.656,4.172a16.792,16.792,0,0,0,6.905-1.317,14.014,14.014,0,0,0,4.882-3.514,14.589,14.589,0,0,0,2.9-5.089,18.99,18.99,0,0,0,.968-6.059q0-7.463-4.178-11.635t-11.656-4.171A16.8,16.8,0,0,0,265,16.294a13.756,13.756,0,0,0-4.882,3.556,14.925,14.925,0,0,0-2.9,5.225,20.084,20.084,0,0,0-.967,6.235Q256.253,38.419,260.431,42.59Zm33.076,52.87a8.749,8.749,0,0,0-3.079-2.722,16.751,16.751,0,0,0-4.662-1.668,38.774,38.774,0,0,0-5.938-.746l-18.913-.351a32.232,32.232,0,0,0-4.178,3.337,15.626,15.626,0,0,0-2.551,3.117,9.573,9.573,0,0,0-1.232,3.117,17.386,17.386,0,0,0-.308,3.338q0,5.176,5.234,7.636t14.735,2.458a39.437,39.437,0,0,0,10.248-1.141,22,22,0,0,0,6.817-2.986,10.915,10.915,0,0,0,3.783-4.3,11.961,11.961,0,0,0,1.143-5.094A6.967,6.967,0,0,0,293.507,95.46ZM213.5,91.684a17.2,17.2,0,0,1-6.861,1.361,16.139,16.139,0,0,1-6.6-1.361,17.106,17.106,0,0,1-8.972-9.133,16.828,16.828,0,0,1-1.32-6.63,17.375,17.375,0,0,1,1.32-6.763,17,17,0,0,1,8.972-9.185,16.14,16.14,0,0,1,6.6-1.361,17.2,17.2,0,0,1,6.861,1.361,17.472,17.472,0,0,1,5.5,3.692,16.854,16.854,0,0,1,3.65,5.488,17.394,17.394,0,0,1,1.32,6.763A17,17,0,0,1,219,87.991,17.449,17.449,0,0,1,213.5,91.684Zm-57.626-.663-32.987-44.61v44.61H101.421V1.8h21.463V39.561h0L154.116,1.8h26.83L144.7,42.458l39.234,48.563H155.875Zm-120.428,0L0,1.8H23.927L42.488,52.382l5.542,16.333,5.454-15.631L72.221,1.8H95.268L60.17,91.021H35.448Z"/>
</svg>
