<svg xmlns="http://www.w3.org/2000/svg" width="300" height="300" viewBox="0 0 300 300"><path id="arrow" d="M225,150a6.48,6.48,0,0,1-1.763,4.487l-62.5,62.5a6.5,6.5,0,0,1-4.487,1.763A6.42,6.42,0,0,1,150,212.5V175H81.25A6.42,6.42,0,0,1,75,168.75v-37.5A6.42,6.42,0,0,1,81.25,125H150V87.5a6.174,6.174,0,0,1,6.25-6.25,7.23,7.23,0,0,1,4.687,1.95l62.3,62.3A6.5,6.5,0,0,1,225,149.987V150Zm31.25,0A106.25,106.25,0,1,0,150,256.25,106.361,106.361,0,0,0,256.25,150ZM300,150A150,150,0,1,1,150,0,150.039,150.039,0,0,1,300,150Z"/></svg>