<svg xmlns="http://www.w3.org/2000/svg" width="300" height="300" viewBox="0 0 300 300"><path id="artist" d="M300,299.991H81.985c0-39.156,23.464-72.3,89.378-77.7V206.273c-21.4-12.058-38.864-42.129-38.864-72.21,0-48.3,0-87.444,58.3-87.444s58.3,39.146,58.3,87.444c0,30.071-17.46,60.152-38.864,72.21v16.021C276.14,227.677,300,260.835,300,299.991ZM118.422,59.343c-9.746,21.137-11.746,49.311-10.746,75.963,0.711,18.966,7.094,38.251,16.732,55.731a115.819,115.819,0,0,0,8.471,13.185c-25.5,4.118-38.8,13.56-50.722,25.257-6.054,5.94-11.146,16.156-15.27,24.512h-66.9c0-39.156,23.464-72.3,89.378-77.7V156.273C67.958,144.215,50.5,118.144,50.5,88.063c0-48.3,0-87.444,58.3-87.444,28.568,0,43.131,9.4,50.56,24.676a45.116,45.116,0,0,0-11,3.964C135.461,36.208,124.728,45.666,118.422,59.343Z"/></svg>