<svg xmlns="http://www.w3.org/2000/svg" width="300" height="300" viewBox="0 0 300 300">
  <defs>
    <style>
      .cls-1 {
        fill-rule: evenodd;
      }
    </style>
  </defs>
  <path id="close" class="cls-1" d="M150,300A150,150,0,1,1,300,150,150.039,150.039,0,0,1,150,300Zm0-256.25A106.25,106.25,0,1,0,256.25,150,106.369,106.369,0,0,0,150,43.75Zm30.936,169.713L150,182.527l-30.936,30.936a6.42,6.42,0,0,1-8.839,0L86.537,189.775a6.42,6.42,0,0,1,0-8.839L117.473,150,86.537,119.064a6.42,6.42,0,0,1,0-8.839l23.688-23.688a6.42,6.42,0,0,1,8.839,0L150,117.473l30.936-30.936a6.42,6.42,0,0,1,8.839,0l23.688,23.688a6.42,6.42,0,0,1,0,8.839L182.527,150l30.936,30.936a6.42,6.42,0,0,1,0,8.839l-23.688,23.688A6.42,6.42,0,0,1,180.936,213.463Z"/>
</svg>
