<svg xmlns="http://www.w3.org/2000/svg" width="300" height="300" viewBox="0 0 300 300"><path id="discord" d="M254.326,54.6A245.9,245.9,0,0,0,192.319,35.34a159.649,159.649,0,0,0-7.884,16.2,235.093,235.093,0,0,0-68.692,0c-2.122-5.045-5.306-11.465-7.884-16.2A242.423,242.423,0,0,0,45.838,54.6C6.573,113-4.04,170.025,1.266,226.284a251.891,251.891,0,0,0,75.969,38.373,186.666,186.666,0,0,0,16.222-26.448,158.567,158.567,0,0,1-25.621-12.384c2.122-1.528,4.245-3.21,6.216-4.891,49.422,22.779,102.954,22.779,151.771,0,2.122,1.681,4.093,3.363,6.216,4.891a158.634,158.634,0,0,1-25.622,12.384,186.788,186.788,0,0,0,16.221,26.448,250.5,250.5,0,0,0,75.97-38.373C305.127,161.158,288.285,104.594,254.326,54.6ZM100.28,191.581c-14.857,0-26.986-13.606-26.986-30.269s11.825-30.271,26.986-30.271c15.009,0,27.288,13.607,26.985,30.271C127.265,177.975,115.289,191.581,100.28,191.581Zm99.62,0c-14.858,0-27-13.606-27-30.269s11.841-30.271,27-30.271c15.009,0,27.288,13.607,26.985,30.271C226.885,177.975,215.06,191.581,199.9,191.581Z"/></svg>