<svg xmlns="http://www.w3.org/2000/svg" width="300" height="300" viewBox="0 0 300 300">
  <defs>
    <style>
      .cls-1 {
        fill-rule: evenodd;
      }
    </style>
  </defs>
  <path class="cls-1" d="M150,300A150,150,0,1,1,300,150,150.039,150.039,0,0,1,150,300ZM94.094,59.7c-0.041.19-.083,0.359-0.123,0.5-0.4,1.393-3.255,1.339-3.272,1.992l-0.592.108a107.049,107.049,0,0,0-15.7,13.126c1.519,1.2,3.2,2.9,3.072,3.925,3.56,0.689,4.859,1.078,8.066,1.594a3.944,3.944,0,0,0,1.942,1.195c-0.052,1.98,1.868,1.674,3.636,1.72,0.066-2.527,3.072,2.186,3.355,3.078-0.429-.011.668,2.6,0.891,3.485-0.486-.176-0.644-0.017-0.5.448,1.539,0.579,4.005.489,4.454-1.038-1.492-.039-0.949-1.631-0.925-2.563-1.508-1-1.224-2.85.329-3.213-0.034,1.307,5.079-.685,2.254-1.778,0.733-1.452,1.262-3.7.161-5.006-0.7-.826-1.634-0.042-1.961-1.263,1.943-.4.612-3.9,0.634-5.513,0.619-.205,2.2.423,2.207,0.057,1.89,0.049,4.979,2.38,6.153-.311,3.122,1.437.575,2.66,3.891,1.717-0.019.73,3.6,4.238,4.071,4.25,0,0.163-.122,1.151.7,1.172-0.019.74-.48-0.436-0.514,0.9,0.458,0.06,2.94.548,2.964-.375,1.584,0.041,2.745-1.756,2.781-3.149,1.007-.58,2.6,5.135,3.792,5.166,0.845,1.311,3.606,3.258,3.574,4.468,0.578,0.582,1.205.445,1.162,2.107,0.746,0.019,2.289-2.7,2.223-.173a4.563,4.563,0,0,1,2.887,2.6c-1.767-.046-0.134,1.612-1.043,1.588-0.041,1.6-3.8.228-4.655,0.11-1.3,4.919-8.3,1.179-12.625,2.345-2.276.614-6.76,5.181-7.056,7.51,2.738,0.1,4-2.127,6.464-2.832,1.992,0.052,2.41-1.072,4.22-1.5-0.012.471,0.485,0.234,0.473,0.7-3.5-.091-1.425,2.088-0.443,3.662a4.164,4.164,0,0,0,2.121,1.776,8.9,8.9,0,0,0-.873,1.718c0,0.01-.01,0-0.01.01a4.837,4.837,0,0,0-2.247,1.095c-3.965.311-2.007,0.111-1.718-.775,0.135,0.321,1.562.069,1.5,0.077-0.206-1.121-.568-0.976-0.2-1.611-2.145-.056-3.211.84-4.938,0.8a4.848,4.848,0,0,1-2.5,1.781c-0.538,1.409-1.739,3.965-3.078,4.757,0.01-.375-3.548,1.976-3.241,1.984-0.808,1.161-1.655,1.1-2.05,2.937a14.866,14.866,0,0,0-1.322,3.649c-1.547.912-2.209,4.779-4.794,4.712-1.66,2.919-4.49,2.451-4.591,6.334,0.936,0.947,1.2,5.041,1.46,6.356,0.326,1.633.854,3.339-1.456,3.318-0.157-.245-1.712-2.583-1.416-2.576a14.126,14.126,0,0,0-1.833-5c-0.937-1.3-2.774.13-4.169-.464-0.573-1.149-4.643-1.5-6.094-1.543,0.213,0.861.87,1.148,0.927,2.1-1.218.43-1.926,0.931-3.168,0.735-2.128-.334-1.832-1.894-4.188-1.734A6.835,6.835,0,0,0,66.6,137.58c-0.419-.011-0.6,6.9-0.179,6.909-0.051,1.951,1.629,3.408,1.591,4.879a1.916,1.916,0,0,1,.986.371c-5.7,1.344-12.507,3.168-13.032,2.114-2.135-.055-2.874-3.883-2.9-5.287-0.047-1.733-1.353-7.748-3.907-7.814,0.037-1.437-3.34-3.957-4.29-4.031-0.112.775-.2,1.556-0.3,2.335,0.167,0.3.3,0.541,0.382,0.673,3.016,5.083,1.246,5.253-.828,3.77-0.224,2.808-.37,5.637-0.37,8.5a106.37,106.37,0,0,0,61.873,96.5c0.188-3.2.367-6.042,1.351-6.016,0.174-6.7,1.869-10.558.917-16.795,0.542,0.014-3.121-3.841-3.092-3.773-3.606-.094-5.989-5.6-5.927-7.982-0.32-1.057-1.168-2.646-1.135-3.943,0.828,0.021-4.946-8.361-4.95-8.2-3.124-1.735.276-3.955,0.664-6.657-2.726-.927.234-7.831,1.429-7.8a2.191,2.191,0,0,1,1.529-1.8c0.553,2.313,3.493-1.054,1.256-1.112a54.787,54.787,0,0,1,.144-5.526c0.061-2.344-2.027-7-3.869-2.177-1.817-.9-6.459-0.87-6.786-3.629,0.321-1.347-2.539-4.191-3.558-4.7,1.022-2.339-4.832-5.655-6.978-5.71,0.013-.51-1.127-0.308-1.447-0.961-2.186-.057-2.615-2.838-5.088-2.9-1.371-.035.736-1.885,3-3.8,0.1,1.157-.8,1.32,1.92,1.372,0-.134,1.535-0.854,1.764-1.8-1.909-.492.062-2.768,1.31-3.188-0.043,1.643,2.466-.484,2.47-0.628,0.279-.1,2.731-0.852,2.731-0.852,0.048-1.865,1.844.23,0.466,0.935-1.328-.035-1.28,2.044-2.016,2.025-0.355,1.471-1.012,2.743-1.417,4.175-0.516,1.766,1.012,1.988.478,3.638a32.752,32.752,0,0,0,5.9.153,1.555,1.555,0,0,0-.221-0.929c2.851,0.074.114,5.071,1.84,5.116-0.05,1.912.892,3.427,0.861,4.628,1.307,0.861,2.075,1.987,1.627,3.495,1.629,0.244,5.134.729,5.185-1.25,2.483,0.064,2.615,1.654,2.389,3.283,4.945,0.129,1.969-4.555,4.032-4.5,0.214-.754.555-0.88,1.022-0.368,1,0.536,1.8-.905,2.622-1.345a6.791,6.791,0,0,1,1.335-.62,2.121,2.121,0,0,1,1.043.749,7.639,7.639,0,0,0,3.9-1.37c1.762,0.248,1.1,3.808,4.4,4.115,1.326,0.121,4.393.546,5.556-.164,0.291-.175,1.322.66,1.426,1.008,1.1,0.029,1,.93,1.468.923a0.406,0.406,0,0,0,.5.234c0.133,0.4,1.009.536,1.44,1.644-0.026,1,2.176,1.229,2.159,1.893,1.564,0.79-.566.937,1.848,1.692a18.493,18.493,0,0,0,3.986,1.229c0.5-1.632,1.945.271,2.7,0.291,0.369,0.76.588,0.2,0.947,0.948,2.232,1.846.748,1.116,1.638,3.043,1.076,0.7,1.363,3.055,1.624,4.417-0.879-.022-0.338,3.155-0.346,3.453-1.062-.027,2.669,1.964,2.73-0.4,1.547,0.281,2.527,1.9,3.631,1.931-0.68,1.377,1.653,2.486,1.71.285,2.323,0.281,1.615,3.533,1.362,4.642,1.726,0.044,2.25-.846,3.726-0.981a10.431,10.431,0,0,1,5.427-1.5c5.65,0.147,10.1,4.561,9.967,9.875-0.124,4.786-4.013,8.483-8.906,9.087a17.241,17.241,0,0,1-1.321,1.274c-0.012.461-.244,5.052-0.387,5.048-0.024.922-.9,5.968-1.626,5.949-0.068,2.6-1.889,3.028-2.6,5.462-1.519,1-5.6,2.624-6.252,3.751-1.155-.03-2.037.87-3.212,0.84-0.171.313-2.732,2.468-2.283,2.479-0.226,1.629-.009,5.481-0.977,6.533-0.652.695-1.559,0.595-1.19,1.72-1.379-.036.058,0.924-2.118,0.868-1.369-.036-3.859,1.736-3.971,3.291a5.025,5.025,0,0,1-2.323,4.264,105.913,105.913,0,0,0,66.778-11.08,18.83,18.83,0,0,1-.586-3.223c-0.763,0-.886-3.2-1.732-3.2,0-.678-4.73-10.107-3.967-10.107a16.527,16.527,0,0,0-.99-4.185c0-3.393-2.484-6.221-2.484-9.357-0.731,0-2.246-6.889-1.484-6.889,0-3.62,1.268-5.985,1.794-10,0.587-4.411-.279-7.095-1.052-10.211-0.422,0-11.844-2.354-11.989-2.951-1.989-1.316-2.721-3.928-2.721-6.395,1.3-1.481-6.186-4.044-6.505-5.874-2.5-1.183-1.5-3.741-4.2-3.741a3.334,3.334,0,0,1-.234-0.595c-1.982.267-6.752-1.259-7.306-2.356-1.824,0-5.441-3.866-5.441-5.665-2-1.327-5.194-7.928-5.194-10.1-1.732-.863-1.206-4.195-0.258-4.195,0.237-.925-0.608-3.846-1.01-5.234-0.3-1.038,1.01-2.159,1.01-3.393,0-3.434.082-5.018,2.01-8.689a33.407,33.407,0,0,0,1.947-3.67c1.031-2.581,1.34-.124,2.732-2.427,1.329-.658,2.1-2.859,3.473-3.938,0.6-.792.618-1.121,0-1.728,0.268,0,1.731-3.794,1.731-4.668,1.938-2.684.567-1.46,2.474-1.234,0.7-.761,1.865-2.714,2.968-2.714a3.126,3.126,0,0,1,2.731-1.481c0,1.481,4.04-.483,4.462-0.483,0.691-1.388,5.143-2.962,6.194-2.962,0-1.686,8.781.473,10.162,0.247v-0.74c1.876,0.442,5.3,7.948,4.947,9.614a19.317,19.317,0,0,1,3.721,0c0,1.594,3.009,1.984,4.38,2.056,1.906,0.093,7.5-.195,7.5-2.8a2.311,2.311,0,0,1,2.494,2.7c1.669,0.185,11.594.38,10.893,2.457,1.453,0,1.824,2.478,3.216,2.478-0.279,1.707,1.731,6.16,3.215,6.16,0,1.48.928,4.2,2.237,5.161,0.7,2.119,3.019,6.581,5.194,7.887-0.928,1.748,1.412,3.188,1.989,4.925-0.134,0,.5,2.581,1.226,2.962,0,1.748,3.69,8.873,5.71,8.873,0.134,0.864-1.9,1.255.742,1.45,0.361,0.021,2.741-.041,2.741-0.462a25.253,25.253,0,0,0,7.184-1c0,3.188-2.69,4.967-2.237,8.134-1.783,0-1,1.83-1,2.457-1.155.71-1.33,2.005-2.721,2.715,0,1.429-3.216,3.794-4.164,5.018-1.072,1.367-4.3,3.742-4.72,5.48,0.113-.411-5.895,6.242-4.493,6.242,0,1.244-1.691,11.084.494,11.084,0,0.864,1.866,9.121.732,9.121,0,2.652-1.731,4.277-1.731,6.395-0.846.576-2.051,0.9-2.474,1.738-1.515,0-2.247,3.208-2.968,3.208a49.412,49.412,0,0,1-.779,6.661A105.836,105.836,0,0,0,256.25,150q0-2.8-.146-5.557a1.232,1.232,0,0,0-.627,1.045c-1.3,0-5.854,1.3-6.689,2.951-0.917,0-4.617,1.306-4.957,1.975-4.6.01-3.72-5.409-5.936-5.409h0c0.185-.905-0.454-1.306-0.99-2.221,1.412,0-4.462-10.869-4.462-12.565-0.9-.442-2.041-3.548-2.247-4.679-1.206-.8-2.453-3.434-2.968-4.925-1.227-.812-4.215-4.452-4.7-6.159,1.773,0.195,4.453.555,4.453-1.728-1.2,0-1.371-1.47-.238-1.47-0.371-1.512.8-2.6,1.062-3.784a27.84,27.84,0,0,0,.917-5.337,8.177,8.177,0,0,0-3.463.741c0,1-3.019-.247-3.463-0.247-0.649-1.3-5.359,1.686-6.678-.987-2.133-1.923-1.556-3.4-2.247-6.118-0.35-1.378-2.236-1.46-3.38-1.686-3.226-.627-0.9,3.835-1.072,4.853,1.979,0-1.247,2.447-1.247,3.691-3.339-.72-2.226-4.432-4.194-5.419-0.588-.987-0.124-1.728-1.5-1.728,0-1.316.7-3.7-.742-4.185,0-.637-2.8-0.895-3.215-1.727-1.773,0-5.9-6.684-7.163-4.432-0.794,1.44.67,1.789,0.969,2.961,2.566-.5,2.319,4.216,5.452,3.691a8.526,8.526,0,0,0,.237,1.974c2.319-.545,2.051,1.717,3.215,1.717-0.845,1.121-3.525-1.789-2.793.658,0.423,1.419.186,2.632-1.659,4.02,0-1.532-.124-5.666-1.731-5.666-1.093-2.18-4.339-1.655-5.71-3.691-1.113,0-1.546-3.455-3.463-3.691a3.875,3.875,0,0,1-2.236.987c-1.041,2.087-6.926.216-6.926,0.494-0.093.021-3.3,7.835-3.484,8.864-0.36,2.211-2.143,2.252-2.679,4.35-0.268,1.048-6.73.555-6.73,1.326-2.793-.925-5.2-2.879-5.2-5.912a46.261,46.261,0,0,1,1-8.874,1.361,1.361,0,0,1,1,.987c1.711-.637,5.7.422,5.7-1.481q2.489,0.062,1.484,1.974c1.546,0.288,4.215.679,4.215-1.481-0.906,0-1-.082-1-0.987,2.968-3.075-2.226-5.851-2.226-7.383-1.052-.35-3.195-2.622-1.67-1.769,1.288,0.709,6,2.18,4.143-.946a0.342,0.342,0,0,0,.237-0.237c0.526,0.37,2.742,2.643,2.742.494,0.608,0,2.957-1.481.989-1.481,0.185-1.111.144-2.036,0.237-2.715,3.143,1.686,1.391-1.152,2.978-2.211,0,2.046,1.691-.987,2.721-0.987,1.227-1.82,4.03-.411,4.71-2.468-1.515-.494-1.237-4.278-1.237-5.655,1.825,0.3,3.855-2.458,4.133-.566,0.1,0.73.2,2.746,0.567,3.023,2.71,1.419,1.989-.812,1.989-2.211-0.907,0-2.113-3.167-2.236-4.689-0.742.1-1.938,0.411-2.237,0.977-2.7,0-4.534-.977-6.678-0.977-0.165-.329-2.742-3.208-2.474-3.208-1.5-2.581,1.5-1.83,1.979-1.954,0-1.334,3.033-1.815,5.866-2.607A105.915,105.915,0,0,0,94.094,59.7Zm80.119,11.394c-1.175,2.314-4.256,2.211-6.441,2.211-0.021-1.789-.361-1.9-2.02-1.4-2.267.689-.5-1.8-0.453-3.033,0.247,0,5.142.226,2.226-.74-0.155-2.653-.753-3.445-3.216-3.445,0-1.81-.639-1.676-0.938-3.661-0.422-2.931,2.3.206,3.175-2.992,2,0,.247,1.481-0.2,1.481,0.34,0.134-.062,1.326-0.062,1.717,1.855-.021,1.886-1.152,3.215-1.481-0.278,1.655-2.133,1.974-.319,3.393,0.958,0.751,1.938,1.635,1.556,2.776,2.36,0,2.711,2.262,2.226,4.925,1.309,0,1.247.062,1.247-1.244C175.481,69.953,175.388,71.095,174.213,71.095Zm-17.087.494c-1.33-1.337-.052-2.036.247-3.455-2.432-.627,2.5-1.347,2.721-1.964a1.147,1.147,0,0,1-1.072-1.573c0.371-.853.979,1.018,1.824,0.6,1-.1,2.968-1.594,1.958,1.285C161.774,69.4,160.836,71.537,157.126,71.588ZM108.44,165.16c0.09-.3.169-0.592,0.259-0.907,0.254,0.084.487,0.167,0.73,0.25C109.218,165.142,109.248,165.181,108.44,165.16Zm-6.188-14.845c-1.956.122-4.382-.941-5.16-2.48a7.053,7.053,0,0,1-4.37-2.191c1.215,0.08,2.408.582,3.206-.609,3.108,0.379,3.332,2.4,5.835,2.469C102.213,148.295,104.843,150.152,102.252,150.315Zm-14.426-5.491c0.233,0.083.486,0.176,0.73,0.25,0.287,1.152.966,0.6,1.71,0.275C90.232,146.685,86.932,146.984,87.826,144.824Zm-11.043,3.95c1.362,0.035-1.26,2.182-3.7,4.25,0-.025,0-0.047-0.005-0.072-1.308-.034-2.716-2.305-4.084-3.213C72.989,148.795,76.439,148.087,76.783,148.774Z"/>
</svg>
