<svg xmlns="http://www.w3.org/2000/svg" width="300" height="300" viewBox="0 0 300 300">
  <defs>
    <style>
      .cls-1 {
        fill-rule: evenodd;
      }
    </style>
  </defs>
  <path id="edit" class="cls-1" d="M116.822,278.732L12.66,299.78a10.629,10.629,0,0,1-9.607-2.834h0A10.627,10.627,0,0,1,.22,287.34L21.268,183.177c1.785-8.781,4.322-17.973,10.544-24.311L187.275,3.4A10.8,10.8,0,0,1,194.85,0c9.91,0,37.343,6.525,67.951,37.2h0C293.471,67.806,300,95.24,300,105.15a10.8,10.8,0,0,1-3.4,7.575L141.133,268.191C134.795,274.41,125.6,276.947,116.822,278.732Zm16.5-32.551s-2.17-24.8-28.455-51.052c-26.255-26.285-51.052-28.455-51.052-28.455L41.75,178.742l-8.172,41.289a3.627,3.627,0,0,0,1.811,3.942,104.4,104.4,0,0,1,22.922,17.708h0A104.4,104.4,0,0,1,76.019,264.6a3.63,3.63,0,0,0,3.942,1.812l41.289-8.173Z"/>
</svg>
