<svg xmlns="http://www.w3.org/2000/svg" width="300" height="300" viewBox="0 0 300 300"><path id="filter" d="M150,0C67.153,0,0,20.991,0,46.875V75L112.5,187.5v93.75c0,10.359,16.791,18.75,37.5,18.75s37.5-8.391,37.5-18.75V187.5L300,75V46.875C300,20.991,232.847,0,150,0ZM27.656,40.669c7.013-4,16.866-7.8,28.5-10.978,25.763-7.05,59.091-10.941,93.853-10.941s68.082,3.881,93.853,10.941c11.635,3.188,21.488,6.984,28.5,10.978a32.2,32.2,0,0,1,8.288,6.206,32.844,32.844,0,0,1-8.288,6.206c-7.012,4-16.875,7.8-28.5,10.978C218.1,71.109,184.772,75,150.009,75S81.928,71.119,56.156,64.059c-11.625-3.187-21.487-6.984-28.5-10.978a32.418,32.418,0,0,1-8.287-6.206A32.831,32.831,0,0,1,27.656,40.669Z"/></svg>