<svg xmlns="http://www.w3.org/2000/svg" width="300" height="300" viewBox="0 0 300 300">
  <defs>
    <style>
      .cls-1 {
        fill-rule: evenodd;
      }
    </style>
  </defs>
  <path id="flower" class="cls-1" d="M260.821,148.082c-1.207.7-2.434,1.325-3.671,1.918,1.237,0.593,2.464,1.221,3.671,1.918a53.5,53.5,0,1,1-53.5,92.664c-1.207-.7-2.364-1.446-3.5-2.22,0.105,1.367.175,2.744,0.175,4.138a53.5,53.5,0,0,1-107,0c0-1.394.07-2.771,0.175-4.138-1.132.774-2.289,1.523-3.5,2.22a53.5,53.5,0,1,1-53.5-92.664c1.207-.7,2.435-1.325,3.671-1.918-1.236-.593-2.464-1.221-3.671-1.918a53.5,53.5,0,0,1,53.5-92.664c1.207,0.7,2.365,1.446,3.5,2.221C97.07,56.271,97,54.894,97,53.5a53.5,53.5,0,1,1,107,0c0,1.394-.07,2.771-0.175,4.138,1.132-.774,2.289-1.524,3.5-2.221A53.5,53.5,0,1,1,260.821,148.082Z"/>
</svg>
