<svg xmlns="http://www.w3.org/2000/svg" width="300" height="300" viewBox="0 0 300 300"><path id="question" d="M149.549-.6A150.149,150.149,0,1,0,299.7,149.536,150.148,150.148,0,0,0,149.549-.6Zm-2.362,237.72h-0.8c-12.231-.359-20.865-9.384-20.5-21.443,0.344-11.855,9.181-20.473,21-20.473l0.72,0.031c12.575,0.36,21.114,9.29,20.755,21.693C168.005,228.818,159.325,237.123,147.187,237.123ZM198.66,134.975c-2.877,4.067-9.2,9.165-17.173,15.375L172.7,156.4c-4.817,3.753-7.726,7.3-8.805,10.76-0.876,2.722-1.283,3.457-1.361,9.009v1.408H128.982l0.094-2.847c0.422-11.636.7-18.518,5.536-24.2,7.586-8.883,24.322-19.675,25.025-20.129a25.8,25.8,0,0,0,5.928-6.053c3.519-4.864,5.068-8.68,5.068-12.4a24.2,24.2,0,0,0-4.583-14.327c-2.94-4.16-8.524-6.225-16.595-6.225-8.008,0-13.5,2.534-16.766,7.758a30.888,30.888,0,0,0-5.084,16.689v1.439H93.024l0.063-1.5c0.892-21.162,8.461-36.411,22.444-45.311,8.806-5.646,19.77-8.508,32.548-8.508,16.7,0,30.843,4.067,41.948,12.075,11.277,8.117,16.986,20.286,16.986,36.146A41.483,41.483,0,0,1,198.66,134.975Z"/></svg>