<svg xmlns="http://www.w3.org/2000/svg" width="300" height="300" viewBox="0 0 300 300"><path id="hidden" d="M192.976,63.15l-27.07,27.412a59.257,59.257,0,0,0-15.86-2.11c-33.784,0-61.176,27.581-61.176,61.6a62.311,62.311,0,0,0,2.187,16.4l-0.107-.431L48.739,208.371A170.742,170.742,0,0,1,.1,150.006C28.551,94.7,84.955,57.56,149.97,57.56a167.385,167.385,0,0,1,44.015,5.852l-1.177-.277Zm58.117,28.49a171.623,171.623,0,0,1,48.941,58.366c-28.432,55.347-84.866,92.507-149.911,92.507a167.259,167.259,0,0,1-44.276-5.929l1.177,0.277,27.07-27.412a59.254,59.254,0,0,0,15.86,2.11c33.785,0,61.176-27.581,61.176-61.6a62.315,62.315,0,0,0-2.187-16.4l0.107,0.431,42.211-42.35h-0.168ZM277.27,0.194l21.717,21.868L22.731,299.817,1.013,277.949Z"/></svg>