<svg xmlns="http://www.w3.org/2000/svg" width="300" height="300" viewBox="0 0 300 300"><path id="instagram" d="M299.113,211.917c-0.7,15.94-3.283,26.835-6.978,36.39a76.7,76.7,0,0,1-43.852,43.834c-9.492,3.694-20.457,6.273-36.4,6.976-16,.7-21.1.882-61.852,0.882s-45.849-.179-61.851-0.882c-15.946-.7-26.845-3.282-36.4-6.976a73.354,73.354,0,0,1-26.555-17.29,73.211,73.211,0,0,1-17.353-26.6C4.17,238.761,1.59,227.8.887,211.861,0.183,195.855,0,190.764,0,150.033S0.183,104.21.887,88.149c0.7-15.94,3.283-26.835,6.979-36.39A73.445,73.445,0,0,1,25.218,25.214,73.127,73.127,0,0,1,51.829,7.868C61.322,4.174,72.287,1.6,88.233.892c16.011-.7,21.105-0.881,61.851-0.881L150.094,0C190.84,0,195.943.18,212,.939c15.945,0.7,26.845,3.282,36.4,6.976a73.353,73.353,0,0,1,26.555,17.29,70.386,70.386,0,0,1,17.175,26.666c3.695,9.489,6.275,20.45,6.978,36.39,0.7,16.006.882,21.1,0.882,61.828S299.817,195.921,299.113,211.917ZM272.193,89.33c-0.647-14.6-3.1-22.559-5.159-27.838a47.022,47.022,0,0,0-11.256-17.234,46.447,46.447,0,0,0-17.231-11.2c-5.281-2.053-13.188-4.51-27.849-5.157-15.768-.7-20.514-0.881-60.614-0.881h-0.009c-40.1,0-44.855.178-60.623,0.881-14.6.647-22.568,3.1-27.849,5.157a47.04,47.04,0,0,0-17.24,11.252,46.542,46.542,0,0,0-11.2,17.234C31.109,66.827,28.651,74.731,28,89.386c-0.7,15.771-.882,20.572-0.882,60.6s0.178,44.772.882,60.6c0.647,14.59,3.1,22.56,5.159,27.839a47.058,47.058,0,0,0,11.256,17.224,46.452,46.452,0,0,0,17.24,11.2c5.281,2.053,13.188,4.51,27.849,5.157,15.777,0.7,20.579.881,60.622,0.881s44.79-.178,60.623-0.881c14.6-.647,22.568-3.1,27.849-5.157a47.09,47.09,0,0,0,17.231-11.252,46.315,46.315,0,0,0,11.2-17.224c2.054-5.279,4.512-13.184,5.159-27.839,0.7-15.771.881-20.572,0.881-60.6S272.9,105.157,272.193,89.33Zm-41.976-1.416a17.993,17.993,0,1,1,18-17.993A18,18,0,0,1,230.217,87.914ZM150.084,227.1a77.064,77.064,0,1,1,77.094-77.064A77.093,77.093,0,0,1,150.084,227.1Zm0-127.05a49.986,49.986,0,1,0,50.005,49.986A50,50,0,0,0,150.084,100.047Z"/></svg>