<svg xmlns="http://www.w3.org/2000/svg" width="300" height="300" viewBox="0 0 300 300"><path id="like" d="M58.5,137.994v120a12.081,12.081,0,0,1-12,12h-34a12.081,12.081,0,0,1-12-12v-120a12.082,12.082,0,0,1,12-12h34A12.082,12.082,0,0,1,58.5,137.994Zm242-.5a47.2,47.2,0,0,1-10.308,29.1A53.623,53.623,0,0,1,293,181.444a42.47,42.47,0,0,1-8.064,26.762,42.92,42.92,0,0,1,0,22.85,40.325,40.325,0,0,1-10.128,18.362c1.128,14.65-2.064,26.562-9.192,35.35-8.064,9.962-20.436,15.037-36.936,15.237H204.488c-26.808,0-52.128-9.175-72.372-16.412-11.808-4.3-23.064-8.4-29.628-8.6a12.608,12.608,0,0,1-12-12.5v-125.2a12.83,12.83,0,0,1,11.436-12.5c6.936-.588,24.936-23.825,33.192-35.15,6.744-8.987,13.128-17.387,18.936-23.437,7.308-7.613,9.372-19.337,11.628-30.662,2.064-11.525,4.308-23.637,12.372-31.837a11.724,11.724,0,0,1,8.436-3.712c42,0,42,34.962,42,50,0,16.012-5.436,27.35-10.5,37.5-2.064,4.3-3.936,6.25-5.436,12.5h51.936c19.5,0,36,17.187,36,37.5H300.5Z"/></svg>