<svg xmlns="http://www.w3.org/2000/svg" width="300" height="300" viewBox="0 0 300 300"><path id="loading" d="M150,299.994A149.994,149.994,0,1,1,299.994,150,149.994,149.994,0,0,1,150,299.994ZM218.22,88.875a94.181,94.181,0,0,0-25.764-26.62,97.706,97.706,0,0,0-35.971-15.3c-26.51-5.567-56.971-.175-81.861,16.72A117.169,117.169,0,0,0,42.289,96.5a121.9,121.9,0,0,0-17.966,44.754,129.346,129.346,0,0,0,.731,50.594A133.924,133.924,0,0,0,46.09,240.3a142.03,142.03,0,0,0,61.772,49.679c-12.122-8.884-30.319-26.483-26.268-50.068,5.053-29.417,31.943-44.954,66.386-34.745,14.354,4.561,32.345,3.127,47.763-5.729,2.033-1,3.767-2.4,5.761-3.609,1.736-1.466,3.739-2.753,5.416-4.43a69.543,69.543,0,0,0,9.831-10.591,73.585,73.585,0,0,0,12.779-27.152C234.579,133.223,231.128,108.994,218.22,88.875Z"/></svg>