<svg xmlns="http://www.w3.org/2000/svg" width="300" height="300" viewBox="0 0 300 300"><path id="lock" d="M257.141,105.882H235.713V70.589C235.713,31.677,197.271,0,150,0S64.287,31.677,64.287,70.589v35.294H42.859C19.224,105.882,0,121.694,0,141.176V264.705C0,284.188,19.224,300,42.859,300H257.141C280.776,300,300,284.188,300,264.705V141.176C300,121.694,280.776,105.882,257.141,105.882ZM150,237.968a27.96,27.96,0,1,1,27.979-27.938A27.922,27.922,0,0,1,150,237.968Zm42.856-114.439H107.144V70.589c0-19.482,19.221-35.294,42.856-35.294s42.856,15.812,42.856,35.294v52.941Z"/></svg>