<svg xmlns="http://www.w3.org/2000/svg" width="300" height="300" viewBox="0 0 300 300">
  <defs>
    <style>
      .cls-1 {
        fill-rule: evenodd;
      }
    </style>
  </defs>
  <path id="magazine_copy" data-name="magazine copy" class="cls-1" d="M297.755,297.333a6.491,6.491,0,0,1-4.787,2.43,6.618,6.618,0,0,1-3.191-.694c-17.446-10.183-39.146-24.274-65.1-24.274-27.657,0-52.549,10.406-74.675,25.217C127.874,285.2,102.982,274.8,75.325,274.8c-25.955,0-47.656,14.091-65.1,24.274a6.618,6.618,0,0,1-3.191.694,6.491,6.491,0,0,1-4.787-2.43,7.586,7.586,0,0,1-2.234-5.207V25.205C17.882,10.394,42.987-.012,75.325-0.012,106.812-.012,131.7,10.394,150,25.205,168.3,10.394,193.188-.012,224.675-0.012c32.338,0,57.443,10.406,75.314,25.217V292.126A7.587,7.587,0,0,1,297.755,297.333ZM217,49.5c-33.145,3.891-49.556,20.881-57,27.7V242.169c20.6-12.729,42.82-16.374,64.675-16.374,13.484,0,23.912,1.906,34.325,6.214V56.771A71.935,71.935,0,0,0,217,49.5Z"/>
</svg>
