<svg xmlns="http://www.w3.org/2000/svg" width="300" height="300" viewBox="0 0 300 300">
  <defs>
    <style>
      .cls-1 {
        fill-rule: evenodd;
      }
    </style>
  </defs>
  <path id="plus" class="cls-1" d="M150,300A150,150,0,1,1,300,150,150.039,150.039,0,0,1,150,300Zm0-256.25A106.25,106.25,0,1,0,256.25,150,106.369,106.369,0,0,0,150,43.75ZM216.75,173H173v43.75a6.42,6.42,0,0,1-6.25,6.25h-33.5a6.42,6.42,0,0,1-6.25-6.25V173H83.25A6.42,6.42,0,0,1,77,166.75v-33.5A6.42,6.42,0,0,1,83.25,127H127V83.25A6.42,6.42,0,0,1,133.25,77h33.5A6.42,6.42,0,0,1,173,83.25V127h43.75a6.42,6.42,0,0,1,6.25,6.25v33.5A6.42,6.42,0,0,1,216.75,173Z"/>
</svg>
