<svg xmlns="http://www.w3.org/2000/svg" width="300" height="300" viewBox="0 0 300 300">
  <defs>
    <style>
      .cls-1 {
        fill-rule: evenodd;
      }
    </style>
  </defs>
  <path id="release" class="cls-1" d="M256.036,256.036a149.991,149.991,0,1,1,0-212.119A149.978,149.978,0,0,1,256.036,256.036Zm-170.7-76.049L45.976,219.345A125.674,125.674,0,0,0,80.63,253.987l39.363-39.363A71.541,71.541,0,0,1,85.334,179.987Zm39.019-55.633a36.242,36.242,0,1,0,51.254,0A36.244,36.244,0,0,0,124.353,124.354ZM219.36,45.961L179.973,85.348a71.668,71.668,0,0,1,34.639,34.657L254,80.615A125.676,125.676,0,0,0,219.36,45.961Z"/>
</svg>
