<svg xmlns="http://www.w3.org/2000/svg" width="300" height="300" viewBox="0 0 300 300"><path id="section" d="M221.855,73.441c-17.411,0-31.251-6.123-41.072-34.06l-6.232-17.9c-3.622-.337-7.517-0.474-12.073-0.474-26.34,0-44.2,7.654-44.2,27.171,0,15.691,12.054,22.2,45.983,31.381C233.016,97.933,254,118.982,254,155.338c0,17.015-11.571,32.31-28.89,44.011,10.427,10.155,15.05,22.293,15.05,37.886,0,33.677-34.376,62.762-97.324,62.762-57.591,0-91.521-19.9-91.521-52.046C53.546,232.26,66.493,226.52,78.1,226.52c17.411,0,31.251,6.123,41.072,34.06l6.232,17.9c3.622,0.337,7.517.474,12.073,0.474,25.893,0,44.2-7.654,44.2-27.171,0-16.074-13.839-21.431-56.251-34.06-56.7-16.839-79.467-34.826-79.467-69.269,0-17.331,12-34.86,29.853-47.754C64.771,90.192,59.8,77.851,59.8,62.725c0-33.677,33.93-62.762,97.324-62.762,57.591,0,91.521,19.9,91.521,52.047C246.41,67.7,233.463,73.441,221.855,73.441ZM91.494,123.574c0,22.579,15.625,31,60.27,42.862,23.21,6.261,41.2,12.577,54.737,19.8a27.176,27.176,0,0,0,1.961-9.854c0-22.579-15.625-31-62.5-43.627-21.993-5.874-39.24-12.193-52.358-19.415A27.365,27.365,0,0,0,91.494,123.574Z"/></svg>