<svg xmlns="http://www.w3.org/2000/svg" width="300" height="300" viewBox="0 0 300 300"><path id="half-star" d="M299.99,116.269c0,3.4-2.342,6.617-4.685,9.073l-65.441,66.909,15.506,94.5a25.865,25.865,0,0,1,.185,3.786c0,4.912-2.158,9.448-7.4,9.448a14.176,14.176,0,0,1-7.211-2.262L150,253.124l-80.948,44.6a14.741,14.741,0,0,1-7.211,2.262c-5.227,0-7.569-4.536-7.569-9.448a28.188,28.188,0,0,1,.358-3.786l15.507-94.5L4.51,125.342C2.352,122.886,0,119.668,0,116.269c0-5.674,5.584-7.936,10.1-8.7l90.5-13.8,40.566-86C142.789,4.176,145.846.015,150,.015s7.211,4.161,8.838,7.754l40.566,86,90.5,13.8c4.326,0.762,10.095,3.024,10.095,8.7H299.99ZM176.336,126.422L150,70.607V211.323l52.529,29.067-10.024-61.51,42.639-43.4Z"/></svg>