<svg xmlns="http://www.w3.org/2000/svg" width="300" height="300" viewBox="0 0 300 300"><path id="twitter" d="M299.419,57.156A124.8,124.8,0,0,1,264.1,66.838a61.974,61.974,0,0,0,27.037-34.03,127.039,127.039,0,0,1-39.083,14.8A61.482,61.482,0,0,0,145.674,89.565a63.117,63.117,0,0,0,1.584,14.048A174.162,174.162,0,0,1,20.5,39.556a60.271,60.271,0,0,0-8.325,30.928,61.481,61.481,0,0,0,27.346,51.181,61.446,61.446,0,0,1-27.852-7.7v0.76a61.52,61.52,0,0,0,49.321,60.318,62.485,62.485,0,0,1-16.2,2.136,61.694,61.694,0,0,1-11.446-1.077A61.7,61.7,0,0,0,90.9,218.8a123.356,123.356,0,0,1-76.273,26.308A131.925,131.925,0,0,1,0,244.277a174.941,174.941,0,0,0,94.46,27.6c113.172,0,174.98-93.673,174.98-174.769,0-2.615,0-5.248-.188-7.873A124.3,124.3,0,0,0,300,57.4l-0.59-.253Z"/></svg>