<svg xmlns="http://www.w3.org/2000/svg" width="300" height="300" viewBox="0 0 300 300"><path id="video" d="M269.988,300.016H30.012c-16.567,0-30-16.791-30-37.5V37.488c0-20.627,13.5-37.5,30-37.5H269.988c16.567,0,30,16.791,30,37.5V262.512C299.985,283.225,286.555,300.016,269.988,300.016ZM59.99,37.992h-30V68h30v-30Zm0,64.006h-30v30h30V102Zm0,65h-30v30h30V167Zm0,65.007h-30v30h30v-30Zm150-194.017H90.006V262.012H209.994V37.988Zm60,0h-30V68h30v-30Zm0,64.006h-30v30h30V102Zm0,65h-30v30h30V167Zm0,65.007h-30v30h30v-30ZM114.5,201.607V98.393L200.507,150Z"/></svg>