<svg xmlns="http://www.w3.org/2000/svg" width="300" height="300" viewBox="0 0 300 300">
  <defs>
    <style>
      .cls-1 {
        fill-rule: evenodd;
      }
    </style>
  </defs>
  <path id="youtube" class="cls-1" d="M296.944,90.05s-2.93-20.677-11.953-29.756c-11.425-11.949-24.2-12.008-30.056-12.71C212.984,44.538,150,44.538,150,44.538h-0.117s-62.984,0-104.935,3.046c-5.859.7-18.632,0.761-30.057,12.71C5.869,69.373,3,90.05,3,90.05A454.845,454.845,0,0,0,.01,138.607v22.727A456.305,456.305,0,0,0,3,209.892s2.93,20.676,11.894,29.755c11.425,11.949,26.424,11.539,33.1,12.828C72.017,254.759,150,255.462,150,255.462s63.043-.117,104.993-3.1c5.859-.7,18.632-0.762,30.057-12.711C294.073,230.568,297,209.892,297,209.892a454.88,454.88,0,0,0,2.988-48.558V138.607a465.466,465.466,0,0,0-3.046-48.557h0Zm-178,98.872V104.635l81.03,42.29-81.03,42h0Z"/>
</svg>
