<?xml version="1.0" encoding="utf-8"?>
<!-- Generator: Adobe Illustrator 16.0.0, SVG Export Plug-In . SVG Version: 6.00 Build 0)  -->
<!DOCTYPE svg PUBLIC "-//W3C//DTD SVG 1.1//EN" "http://www.w3.org/Graphics/SVG/1.1/DTD/svg11.dtd">
<svg version="1.1" xmlns="http://www.w3.org/2000/svg" xmlns:xlink="http://www.w3.org/1999/xlink" x="0px" y="0px" width="160px"
	 height="160px" viewBox="0 0 160 160" enable-background="new 0 0 160 160" xml:space="preserve">
<g id="Clock">
	
		<circle fill-rule="evenodd" clip-rule="evenodd" fill="none" stroke="#000000" stroke-width="5" stroke-linecap="round" stroke-miterlimit="10" cx="80" cy="80" r="50"/>
	
		<line display="none" fill="none" stroke="#FF0000" stroke-width="5" stroke-linecap="round" stroke-miterlimit="10" x1="79.5" y1="37" x2="79.5" y2="42"/>
	
		<line display="none" fill="none" stroke="#FF0000" stroke-width="5" stroke-linecap="round" stroke-miterlimit="10" x1="59.3" y1="42.2" x2="61.7" y2="46.7"/>
	
		<line fill="none" stroke="#000000" stroke-width="5" stroke-linecap="round" stroke-miterlimit="10" x1="43.9" y1="56.1" x2="48.1" y2="59"/>
	
		<line fill="none" stroke="#000000" stroke-width="5" stroke-linecap="round" stroke-miterlimit="10" x1="36.9" y1="75.7" x2="41.9" y2="76.2"/>
	
		<line fill="none" stroke="#000000" stroke-width="5" stroke-linecap="round" stroke-miterlimit="10" x1="39.9" y1="96.2" x2="44.5" y2="94.3"/>
	
		<line fill="none" stroke="#000000" stroke-width="5" stroke-linecap="round" stroke-miterlimit="10" x1="52.2" y1="113" x2="55.4" y2="109.1"/>
	
		<line fill="none" stroke="#000000" stroke-width="5" stroke-linecap="round" stroke-miterlimit="10" x1="70.9" y1="122" x2="71.9" y2="117"/>
	
		<line display="none" fill="none" stroke="#FF0000" stroke-width="5" stroke-linecap="round" stroke-miterlimit="10" x1="100.7" y1="42.2" x2="98.3" y2="46.7"/>
	
		<line fill="none" stroke="#000000" stroke-width="5" stroke-linecap="round" stroke-miterlimit="10" x1="116.1" y1="56.1" x2="111.9" y2="59"/>
	
		<line fill="none" stroke="#000000" stroke-width="5" stroke-linecap="round" stroke-miterlimit="10" x1="123.1" y1="75.7" x2="118.1" y2="76.2"/>
	
		<line fill="none" stroke="#000000" stroke-width="5" stroke-linecap="round" stroke-miterlimit="10" x1="120.1" y1="96.2" x2="115.5" y2="94.3"/>
	
		<line fill="none" stroke="#000000" stroke-width="5" stroke-linecap="round" stroke-miterlimit="10" x1="107.8" y1="113" x2="104.6" y2="109.1"/>
	
		<line fill="none" stroke="#000000" stroke-width="5" stroke-linecap="round" stroke-miterlimit="10" x1="89.1" y1="122" x2="88.1" y2="117"/>
	
		<line fill="none" stroke="#000000" stroke-width="5" stroke-linecap="round" stroke-miterlimit="10" x1="79.5" y1="66" x2="79.5" y2="91"/>
	
		<line fill="none" stroke="#000000" stroke-width="5" stroke-linecap="round" stroke-miterlimit="10" x1="79.5" y1="91" x2="71.5" y2="76.2"/>
	<g id="Layer_5_copy">
		
			<line fill="none" stroke="#000000" stroke-width="5" stroke-linecap="round" stroke-linejoin="round" stroke-miterlimit="10" x1="65" y1="40.4" x2="75" y2="57.6"/>
		
			<line fill="none" stroke="#000000" stroke-width="5" stroke-linecap="round" stroke-linejoin="round" stroke-miterlimit="10" x1="75" y1="40.4" x2="65" y2="57.6"/>
	</g>
	<g id="Layer_6_copy_2">
		
			<line fill="none" stroke="#000000" stroke-width="5" stroke-linecap="round" stroke-miterlimit="10" x1="79.5" y1="40" x2="79.5" y2="58"/>
	</g>
	<g id="Layer_6_copy_3">
		
			<line fill="none" stroke="#000000" stroke-width="5" stroke-linecap="round" stroke-miterlimit="10" x1="85.5" y1="40" x2="85.5" y2="58"/>
	</g>
	<g id="Layer_6_copy_4">
		
			<line fill="none" stroke="#000000" stroke-width="5" stroke-linecap="round" stroke-miterlimit="10" x1="91.5" y1="40" x2="91.5" y2="58"/>
		
			<line fill="none" stroke="#000000" stroke-width="5" stroke-linecap="round" stroke-miterlimit="10" x1="62" y1="39.5" x2="97" y2="39.5"/>
		
			<line fill="none" stroke="#000000" stroke-width="5" stroke-linecap="round" stroke-miterlimit="10" x1="62" y1="58.5" x2="97" y2="58.5"/>
	</g>
</g>
<g id="Crescent_Moon">
	<g>
		<path fill="#00A99D" d="M103,41.3c13.2,7.9,22,22.2,22,38.7c0,24.8-20.2,45-45,45c-8.4,0-16.5-2.4-23.4-6.6
			c3.5,0.8,7.1,1.2,10.7,1.2c26.1,0,47.3-21.2,47.3-47.3C114.7,60.6,110.3,49.7,103,41.3 M80,30c-2.2,0-4.4,0.2-6.6,0.4
			c20.5,3,36.2,20.6,36.2,41.9c0,23.4-19,42.3-42.3,42.3c-14.1,0-26.6-6.9-34.3-17.6c7,19.2,25.4,32.9,47,32.9c27.6,0,50-22.4,50-50
			C130,52.4,107.6,30,80,30L80,30z"/>
	</g>
</g>
<g id="Cage">
	<g id="Normal">
		
			<path fill-rule="evenodd" clip-rule="evenodd" fill="none" stroke="#0000FF" stroke-width="5" stroke-linecap="round" stroke-miterlimit="10" d="
			M80,160c-27.6,0-50-8.3-50-16V56c0-24.4,17.6-44.7,40.8-49c1.5-3.5,5.1-6,9.2-6c4.1,0,7.6,2.5,9.2,6c23.3,4.3,40.9,24.6,40.9,49
			v88C130,151.7,107.6,160,80,160z"/>
		
			<path id="Spoke_L" fill-rule="evenodd" clip-rule="evenodd" fill="none" stroke="#0000FF" stroke-width="5" stroke-linecap="round" stroke-miterlimit="10" d="
			M50,54c0,16.1,0,102.1,0,102.1 M80,6C63.4,6,50,26.9,50,54"/>
		
			<path id="Spoke_LM" fill-rule="evenodd" clip-rule="evenodd" fill="none" stroke="#0000FF" stroke-width="5" stroke-linecap="round" stroke-miterlimit="10" d="
			M70,46.2c0,4.6,0,108.8,0,112.2 M80,6c-5.5,0-10,13.9-10,41"/>
		
			<path id="Spoke_RM" fill-rule="evenodd" clip-rule="evenodd" fill="none" stroke="#0000FF" stroke-width="5" stroke-linecap="round" stroke-miterlimit="10" d="
			M90,46.4c0,16.3,0,106.3,0,113.6 M80,6c5.5,0,10,13.9,10,41"/>
		
			<path id="Spoke_R" fill-rule="evenodd" clip-rule="evenodd" fill="none" stroke="#0000FF" stroke-width="5" stroke-linecap="round" stroke-miterlimit="10" d="
			M110,54.1c0,8.9,0,92.9,0,101.2 M80,6c16.6,0,30,20.9,30,48"/>
	</g>
	<g id="Eye_gap" display="none">
		
			<path display="inline" fill-rule="evenodd" clip-rule="evenodd" fill="none" stroke="#0000FF" stroke-width="5" stroke-linecap="round" stroke-miterlimit="10" d="
			M80,160c-27.6,0-50-8.3-50-16V56c0-24.4,17.6-44.7,40.8-49c1.5-3.5,5.1-6,9.2-6c4.1,0,7.6,2.5,9.2,6c23.3,4.3,40.9,24.6,40.9,49
			v88C130,151.7,107.6,160,80,160z"/>
		
			<path id="Spoke_L_1_" display="inline" fill-rule="evenodd" clip-rule="evenodd" fill="none" stroke="#0000FF" stroke-width="5" stroke-linecap="round" stroke-miterlimit="10" d="
			M50,100c0,16.1,0,56.1,0,56.1 M80,6C63.4,6,50,26.9,50,54"/>
		
			<path id="Spoke_LM_1_" display="inline" fill-rule="evenodd" clip-rule="evenodd" fill="none" stroke="#0000FF" stroke-width="5" stroke-linecap="round" stroke-miterlimit="10" d="
			M80,6c-5.5,0-10,13.9-10,41"/>
		
			<path id="Spoke_RM_1_" display="inline" fill-rule="evenodd" clip-rule="evenodd" fill="none" stroke="#0000FF" stroke-width="5" stroke-linecap="round" stroke-miterlimit="10" d="
			M80,6c5.5,0,10,13.9,10,41"/>
		
			<path id="Spoke_R_1_" display="inline" fill-rule="evenodd" clip-rule="evenodd" fill="none" stroke="#0000FF" stroke-width="5" stroke-linecap="round" stroke-miterlimit="10" d="
			M80,6c16.6,0,30,20.9,30,48"/>
	</g>
</g>
<g id="Eye">
	
		<path id="Drip_R" fill-rule="evenodd" clip-rule="evenodd" fill="none" stroke="#0000FF" stroke-width="5" stroke-linecap="round" stroke-miterlimit="10" d="
		M110,135L110,135 M110,99.1c0,8.9,0,17.9,0,26.2"/>
	
		<path id="Drip_M" fill-rule="evenodd" clip-rule="evenodd" fill="none" stroke="#0000FF" stroke-width="5" stroke-linecap="round" stroke-miterlimit="10" d="
		M90,106.4c0,16.3,0,30.5,0,37.7"/>
	
		<path id="Drip_L" fill-rule="evenodd" clip-rule="evenodd" fill="none" stroke="#0000FF" stroke-width="5" stroke-linecap="round" stroke-miterlimit="10" d="
		M70,106.2c0,4.6,0,8.8,0,12.2"/>
	
		<path id="Iris" fill-rule="evenodd" clip-rule="evenodd" fill="none" stroke="#0000FF" stroke-width="5" stroke-miterlimit="10" d="
		M110,56c0,16.7-13.3,30.3-30,30.3S50,72.7,50,56"/>
	<g id="Sclera">
		
			<path fill-rule="evenodd" clip-rule="evenodd" fill="none" stroke="#0000FF" stroke-width="5" stroke-linejoin="round" stroke-miterlimit="10" d="
			M80,106.6c-22.4,0-41.6-12.3-50-30c8.4-17.7,27.6-30,50-30c22.4,0,41.6,12.3,50,30C121.6,94.2,102.3,106.6,80,106.6z"/>
	</g>
</g>
<g id="Butterfly">
	<path fill-rule="evenodd" clip-rule="evenodd" fill="none" stroke="#0000FF" stroke-width="5" stroke-miterlimit="10" d="
		M89.9,132.1c-24.4,4-42-18-42-18c0-0.1-2.3-22.3,7.2-37.5c12.1-19.4,32.4-22.1,38-31.9c4-7,4.5-10.4,4.5-10.4s18.9,22.2,4.2,47.8
		c-4.1,7.2-9.5,12.7-15.2,17.1c8.6,2.3,16.8,5.7,24.8,4.1c7.9-1.6,10.7-3.7,10.7-3.7S119.1,127.3,89.9,132.1z M89.9,98.5
		c0.9-0.8,4.5-3.8,7.3-7.2c3.8-4.6,6.2-9.1,6.8-10.2c2.2-0.2,4.3-0.7,6.3-1.6c6.6-2.8,8.6-5.2,8.6-5.2s1.7,16.7-11.4,27.9
		C101.8,102.2,96,100.3,89.9,98.5z M45.6,101.4c-3.9-4.4-8.3-11.3-8.1-19.2c0.4-14.2,10.1-22.5,12.8-28.8c3-7.1,0.7-14.7,0.7-14.7
		S68.9,43,65.6,62.1c-4.5,3.4-8.8,7.7-12.3,13.5C47.6,85,45.9,94.3,45.6,101.4z"/>
</g>
</svg>
