<svg version="1" xmlns="http://www.w3.org/2000/svg" width="400" height="400" viewBox="0 0 300.000000 300.000000"><path d="M134.8 6.5c-.1.1-3.3.6-7.1.9-17.6 1.6-37.8 7.9-57.2 17.8C43 39.2 19.3 62.7 5.9 89.1c-3.6 7-3.6 9.5-.3 16.2 18.2 36.1 54.6 65.1 96.4 76.8l9.5 2.6.2 14.8c.2 11.4.6 15.4 1.8 17.2 3.7 5.6 12.1 5.6 15.5 0 1.7-2.7 2-5.1 2-15.7v-12.5l17.5-.1H166l.1 3.6v46.5c0 25.9.4 44.3 1 46.2 1.3 4.2 4.4 6.3 9 6.3 4.3 0 8.5-3.6 9-7.8.2-1.5.4-24.2.4-50.4l-.1-47.8 5.6-1.5c4.9-1.4 23.6-7.9 28.3-10 1.6-.7 1.7 1.1 1.7 28.9 0 32.8.3 34.5 6 36.4 4.5 1.6 10.1-.5 11.9-4.5.7-1.6 1.1-13.8 1.1-37.3v-34.8l7.3-5.3c18.2-13.3 33.9-31.5 43.7-50.5 2.9-5.6 3.8-8.5 3.3-10.3-2.2-9.2-16.5-30.2-29.3-43.1-19.4-19.5-47.4-35.1-75.1-41.9C181 9 179 8.6 168 7.1c-6.1-.8-32.4-1.3-33.2-.6zm39.8 20.9c14.1 2.5 25.3 6.1 38.7 12.3l7.9 3.7-.6 4.5c-1.6 12.2-3.1 17.4-7.8 26.6-8.4 16.4-23.4 29.6-40.3 35.5-45.3 15.8-93.3-16.5-95.9-64.5-.2-4.1 22.6-13.3 44.9-18 1.7-.4 5.5-.9 8.5-1.2 3-.2 5.6-.6 5.8-.8 1-1 31.1.5 38.8 1.9zM59 59c0 3 5.8 19.7 8.6 24.8 10 18 24.3 31.9 41.4 40.4 5.7 2.9 18 6.8 25 7.9 6.3 1 21.5 1.3 25.5.5 1.1-.2 4-.7 6.5-1.1 14.5-2.3 31.4-10.8 43.7-21.9 13.8-12.5 23.2-28.9 28.3-49.4 1.3-5.2 1.4-5.2 12.1 5.2 8.5 8.3 17.7 20 21.8 27.7l2.4 4.6-3.2 5.4c-9 14.7-22.8 29.7-36.1 39.1-43.5 31-101.5 36.1-149.9 13.2-8.3-3.9-21.7-11.6-23.1-13.3-.3-.3-3-2.5-6-4.8-11-8.3-24.1-23.9-31-36.6l-2.1-3.8 3.6-5.8C33 80.2 42.3 69.3 52 60.8c5.4-4.8 7-5.2 7-1.8z"/><path d="M227.4 247.7c-3.3.6-5.5 3.7-6.1 8.2-.5 3.5-.2 4.4 2.5 7.1 4.2 4.1 9.2 4.2 13.3.1 4.5-4.6 3.2-12.3-2.6-14.9-2.6-1.2-3.3-1.3-7.1-.5z"/></svg>